# xmcd
#
# Track frame offsets:
#	150
#	20419
#	40446
#	58303
#	83551
#	108913
#	129992
#	156907
#	178889
#	197724
#	221052
#	236875
#
# Disc length: 3499 seconds
#
# Revision: 0
# Processed by: cddbd v1.5.1PL0 Copyright (c) Steve Scherf et al.
# Submitted via: dBpowerAMP V4.0
#
DISCID=ab0da90c
DTITLE=Kalamazoo Kenny and The Rhythm Ratz - Kickin' It
DYEAR=2003
DGENRE=Blues
TTITLE0=Shake and Finger Pop
TTITLE1=T-Bone Shuffle
TTITLE2=Home Again
TTITLE3=24 Hours
TTITLE4=Born Under A Bad Sign
TTITLE5=Talk To Me Baby
TTITLE6=I Just Want To Make Love To You
TTITLE7=Moon Dance
TTITLE8=300 Pounds
TTITLE9=She Caught The Katy
TTITLE10=One More Shot
TTITLE11=Ain't No Sunshine
EXTD=
EXTT0=
EXTT1=
EXTT2=
EXTT3=
EXTT4=
EXTT5=
EXTT6=
EXTT7=
EXTT8=
EXTT9=
EXTT10=
EXTT11=
PLAYORDER=
